P3
5 5 255
0 0 0 0 0 0 229 0 0 255 0 0 255 0 0 0 0 0 0 0 0 96 84 84 255 207 207 255 49 49 3 30 1 0 0 0 101 101 101 255 255 255 188 131 188 17 255 0 29 202 17 242 255 241 255 255 255 75 100 255 17 255 0 17 255 0 76 249 71 45 96 227 0 35 255 
